<svg xmlns="http://www.w3.org/2000/svg" viewBox="0 0 400 600">
  <defs>
    <linearGradient id="hg" x1="0%" y1="0%" x2="0%" y2="100%">
      <stop offset="0%" style="stop-color:#2D2D2D"/><stop offset="100%" style="stop-color:#0D0D0D"/>
    </linearGradient>
    <linearGradient id="htg" x1="0%" y1="0%" x2="100%" y2="100%">
      <stop offset="0%" style="stop-color:#9B30FF"/><stop offset="100%" style="stop-color:#FF0080"/>
    </linearGradient>
  </defs>
  <ellipse cx="200" cy="200" rx="85" ry="90" fill="url(#hg)"/>
  <path d="M160 150 Q170 120 200 115 Q230 120 240 150 L240 180 Q230 160 200 155 Q170 160 160 180 Z" fill="#1A1A1A"/>
  <ellipse cx="200" cy="190" rx="45" ry="50" fill="#E8DCC8"/>
  <ellipse cx="153" cy="195" rx="7" ry="11" fill="#E8DCC8"/>
  <ellipse cx="247" cy="195" rx="7" ry="11" fill="#E8DCC8"/>
  <path d="M170 175 Q180 170 190 175" stroke="#1A1A1A" stroke-width="3" fill="none"/>
  <path d="M210 175 Q220 170 230 175" stroke="#1A1A1A" stroke-width="3" fill="none"/>
  <ellipse cx="180" cy="185" rx="11" ry="7" fill="#FFFFFF"/>
  <ellipse cx="220" cy="185" rx="11" ry="7" fill="#FFFFFF"/>
  <ellipse cx="182" cy="185" rx="4" ry="4" fill="#00CCCC"/>
  <ellipse cx="222" cy="185" rx="4" ry="4" fill="#00CCCC"/>
  <path d="M195 195 L193 202 L197 202" fill="none" stroke="#C9B89A" stroke-width="2"/>
  <path d="M190 215 Q200 213 210 215" stroke="#8B7355" stroke-width="2" fill="none"/>
  <path d="M140 230 Q130 250 130 320 L130 400 Q130 415 150 415 L250 415 Q270 415 270 400 L270 320 Q270 250 260 230 Q240 220 140 230 Z" fill="url(#hg)" stroke="#333" stroke-width="2"/>
  <path d="M140 230 Q130 250 130 270 L130 290 Q150 280 170 280 Q190 280 210 280 Q230 280 250 280 Q270 280 270 290 L270 270 Q270 250 260 230 Q240 220 140 230 Z" fill="url(#htg)"/>
  <!-- Arms ready -->
  <path d="M140 250 Q110 300 100 340 Q95 365 115 370" fill="url(#hg)" stroke="#333" stroke-width="2"/>
  <circle cx="120" cy="375" r="15" fill="#1A1A1A"/>
  <path d="M260 250 Q290 300 300 340 Q305 365 285 370" fill="url(#hg)" stroke="#333" stroke-width="2"/>
  <circle cx="280" cy="375" r="15" fill="#1A1A1A"/>
  <!-- Legs bent -->
  <path d="M160 400 L140 430 L130 460 L155 465 L175 420" fill="url(#hg)" stroke="#333" stroke-width="2"/>
  <ellipse cx="145" cy="470" rx="18" ry="9" fill="#0D0D0D"/>
  <path d="M240 400 L260 430 L270 460 L245 465 L225 420" fill="url(#hg)" stroke="#333" stroke-width="2"/>
  <ellipse cx="255" cy="470" rx="18" ry="9" fill="#0D0D0D"/>
  <text x="200" y="350" font-family="Arial Black" font-size="35" fill="url(#htg)" text-anchor="middle" font-weight="bold">N</text>
</svg>
