<svg xmlns="http://www.w3.org/2000/svg" viewBox="0 0 400 600" width="400" height="600">
  <!-- NOMARK Character - Defensive Stance -->
  
  <!-- DEFINITIONS -->
  <defs>
    <linearGradient id="hoodieGradient" x1="0%" y1="0%" x2="0%" y2="100%">
      <stop offset="0%" style="stop-color:#2D2D2D"/>
      <stop offset="100%" style="stop-color:#0D0D0D"/>
    </linearGradient>
    <linearGradient id="neonCyan" x1="0%" y1="0%" x2="100%" y2="100%">
      <stop offset="0%" style="stop-color:#00FFFF"/>
      <stop offset="100%" style="stop-color:#00CCCC"/>
    </linearGradient>
    <linearGradient id="neonPink" x1="0%" y1="0%" x2="100%" y2="100%">
      <stop offset="0%" style="stop-color:#FF0080"/>
      <stop offset="100%" style="stop-color:#CC0066"/>
    </linearGradient>
    <filter id="glow" x="-50%" y="-50%" width="200%" height="200%">
      <feGaussianBlur stdDeviation="3" result="coloredBlur"/>
      <feMerge>
        <feMergeNode in="coloredBlur"/>
        <feMergeNode in="SourceGraphic"/>
      </feMerge>
    </filter>
  </defs>
  
  <!-- === LEGS (wide stance, ready) === -->
  <path d="M150 320 L120 440 L145 450 L160 360 L200 360 L215 450 L240 440 L210 320 Z" fill="#1A1A1A"/>
  <path d="M145 450 L120 465 L145 475 L165 460 Z" fill="#0D0D0D"/>
  <path d="M215 450 L240 465 L215 475 L195 460 Z" fill="#0D0D0D"/>
  
  <!-- === HOODIE BODY === -->
  <path d="M140 150 
           Q130 160 130 200 
           L130 320 
           Q130 340 150 340
           L210 340
           Q230 340 230 320
           L230 200
           Q230 160 220 150
           Q200 140 140 150 Z" 
        fill="url(#hoodieGradient)" stroke="#333" stroke-width="2"/>
  
  <!-- Hood -->
  <ellipse cx="180" cy="120" rx="65" ry="70" fill="#1A1A1A"/>
  <ellipse cx="180" cy="115" rx="55" ry="55" fill="#0D0D0D"/>
  <ellipse cx="180" cy="140" rx="40" ry="35" fill="#1A1A1A"/>
  <path d="M140 120 Q180 100 220 120" fill="none" stroke="#000" stroke-width="3" opacity="0.5"/>
  
  <!-- === ARMS (defensive, in front of body) === -->
  <!-- Left Arm (bent in front) -->
  <path d="M130 180 L100 200 L130 250 L145 245 L120 200 L135 190" fill="url(#hoodieGradient)"/>
  <circle cx="140" cy="260" r="15" fill="#E8B89D"/>
  
  <!-- Right Arm (bent in front) -->
  <path d="M230 180 L260 200 L230 250 L215 245 L240 200 L225 190" fill="url(#hoodieGradient)"/>
  <circle cx="220" cy="260" r="15" fill="#E8B89D"/>
  
  <!-- === FACE/MASK === -->
  <ellipse cx="180" cy="155" rx="35" ry="30" fill="#E8B89D"/>
  
  <g filter="url(#glow)">
    <ellipse cx="165" cy="150" rx="10" ry="6" fill="#FFFFFF"/>
    <circle cx="165" cy="150" r="3" fill="#000"/>
    <ellipse cx="195" cy="150" rx="10" ry="6" fill="#FFFFFF"/>
    <circle cx="195" cy="150" r="3" fill="#000"/>
  </g>
  
  <path d="M155 140 Q165 138 175 142" fill="none" stroke="#333" stroke-width="2"/>
  <path d="M185 142 Q195 138 205 140" fill="none" stroke="#333" stroke-width="2"/>
  
  <path d="M150 165 Q150 180 165 185 L180 188 L195 185 Q210 180 210 165 L210 160 Q180 170 150 160 Z" 
        fill="#0D0D0D"/>
  <path d="M150 160 Q180 170 210 160" fill="none" stroke="#222" stroke-width="1"/>
  
  <!-- === HOODIE DETAILS === -->
  <line x1="165" y1="180" x2="165" y2="240" stroke="#333" stroke-width="3"/>
  <line x1="195" y1="180" x2="195" y2="240" stroke="#333" stroke-width="3"/>
  <circle cx="165" cy="242" r="4" fill="#444"/>
  <circle cx="195" cy="242" r="4" fill="#444"/>
  
  <g transform="translate(180, 240)">
    <circle cx="0" cy="0" r="15" fill="none" stroke="url(#neonCyan)" stroke-width="2" filter="url(#glow)"/>
    <text x="0" y="5" text-anchor="middle" fill="url(#neonCyan)" font-family="Arial" font-size="12" font-weight="bold" filter="url(#glow)">N</text>
  </g>
  
  <path d="M155 300 L175 300 L175 320 Q165 325 155 320 Z" fill="#222"/>
  
  <path d="M145 155 Q180 165 215 155" fill="none" stroke="url(#neonPink)" stroke-width="2" filter="url(#glow)" opacity="0.8"/>
  
  <rect x="130" y="245" width="20" height="5" fill="#333"/>
  <rect x="210" y="245" width="20" height="5" fill="#333"/>
  
  <ellipse cx="180" cy="485" rx="70" ry="10" fill="#000" opacity="0.3"/>
  
</svg>