<svg xmlns="http://www.w3.org/2000/svg" viewBox="0 0 400 600">
  <defs>
    <linearGradient id="hg" x1="0%" y1="0%" x2="0%" y2="100%">
      <stop offset="0%" style="stop-color:#2D2D2D"/><stop offset="100%" style="stop-color:#0D0D0D"/>
    </linearGradient>
    <linearGradient id="htg" x1="0%" y1="0%" x2="100%" y2="100%">
      <stop offset="0%" style="stop-color:#9B30FF"/><stop offset="100%" style="stop-color:#FF0080"/>
    </linearGradient>
  </defs>
  <!-- Lean forward body -->
  <ellipse cx="200" cy="160" rx="90" ry="100" fill="url(#hg)"/>
  <path d="M160 100 Q170 70 200 65 Q230 70 240 100 L240 130 Q230 110 200 105 Q170 110 160 130 Z" fill="#1A1A1A"/>
  <ellipse cx="200" cy="150" rx="50" ry="55" fill="#E8DCC8"/>
  <ellipse cx="148" cy="155" rx="8" ry="12" fill="#E8DCC8"/>
  <ellipse cx="252" cy="155" rx="8" ry="12" fill="#E8DCC8"/>
  <path d="M170 130 Q180 125 190 130" stroke="#1A1A1A" stroke-width="3" fill="none"/>
  <path d="M210 130 Q220 125 230 130" stroke="#1A1A1A" stroke-width="3" fill="none"/>
  <ellipse cx="180" cy="145" rx="12" ry="8" fill="#FFFFFF"/>
  <ellipse cx="220" cy="145" rx="12" ry="8" fill="#FFFFFF"/>
  <ellipse cx="182" cy="145" rx="5" ry="5" fill="#00CCCC"/>
  <ellipse cx="222" cy="145" rx="5" ry="5" fill="#00CCCC"/>
  <path d="M200 155 L198 165 L202 165" fill="none" stroke="#C9B89A" stroke-width="2"/>
  <path d="M190 180 Q200 178 210 180" stroke="#8B7355" stroke-width="2" fill="none"/>
  <path d="M130 190 Q110 200 110 280 L110 380 Q110 400 140 400 L260 400 Q290 400 290 380 L290 280 Q290 200 270 190 Q250 180 130 190 Z" fill="url(#hg)" stroke="#333" stroke-width="2"/>
  <path d="M130 190 Q110 210 110 230 L110 250 Q140 240 160 240 Q180 240 200 240 Q220 240 240 240 Q260 240 290 250 L290 230 Q290 210 270 190 Q250 180 130 190 Z" fill="url(#htg)"/>
  <!-- Arms pumping -->
  <path d="M130 210 Q60 250 40 200 Q35 180 50 170" fill="url(#hg)" stroke="#333" stroke-width="2"/>
  <circle cx="45" cy="165" r="15" fill="#1A1A1A"/>
  <path d="M270 210 Q340 250 360 200 Q365 180 350 170" fill="url(#hg)" stroke="#333" stroke-width="2"/>
  <circle cx="355" cy="165" r="15" fill="#1A1A1A"/>
  <!-- Legs mid-stride -->
  <path d="M160 400 L100 420 L90 480 L130 490 L160 430" fill="url(#hg)" stroke="#333" stroke-width="2"/>
  <ellipse cx="105" cy="485" rx="20" ry="10" fill="#0D0D0D"/>
  <path d="M240 400 L300 420 L310 480 L270 490 L240 430" fill="url(#hg)" stroke="#333" stroke-width="2"/>
  <ellipse cx="295" cy="485" rx="20" ry="10" fill="#0D0D0D"/>
  <text x="200" y="330" font-family="Arial Black" font-size="40" fill="url(#htg)" text-anchor="middle" font-weight="bold">N</text>
</svg>
