<svg xmlns="http://www.w3.org/2000/svg" viewBox="0 0 400 600" width="400" height="600">
  <!-- NOMARK - Running Pose 1 -->
  
  <defs>
    <linearGradient id="hoodieGradient" x1="0%" y1="0%" x2="0%" y2="100%">
      <stop offset="0%" style="stop-color:#2D2D2D"/>
      <stop offset="100%" style="stop-color:#0D0D0D"/>
    </linearGradient>
    <linearGradient id="neonCyan" x1="0%" y1="0%" x2="100%" y2="100%">
      <stop offset="0%" style="stop-color:#00FFFF"/>
      <stop offset="100%" style="stop-color:#00CCCC"/>
    </linearGradient>
    <linearGradient id="neonPink" x1="0%" y1="0%" x2="100%" y2="100%">
      <stop offset="0%" style="stop-color:#FF0080"/>
      <stop offset="100%" style="stop-color:#CC0066"/>
    </linearGradient>
    <filter id="glow" x="-50%" y="-50%" width="200%" height="200%">
      <feGaussianBlur stdDeviation="3" result="coloredBlur"/>
      <feMerge>
        <feMergeNode in="coloredBlur"/>
        <feMergeNode in="SourceGraphic"/>
      </feMerge>
    </filter>
  </defs>
  
  <!-- Left Leg - high forward -->
  <g id="left-leg" transform="rotate(-45, 165, 340)">
    <path d="M155 320 L145 480 L165 480 L175 350 L165 340 Z" fill="#1A1A1A"/>
    <path d="M145 480 L125 490 L145 500 L165 490 Z" fill="#0D0D0D"/>
  </g>
  
  <!-- Right Leg - back -->
  <g id="right-leg" transform="rotate(35, 215, 340)">
    <path d="M215 320 L225 350 L235 480 L255 480 L215 320 Z" fill="#1A1A1A"/>
    <path d="M215 480 L235 490 L215 500 L195 490 Z" fill="#0D0D0D"/>
  </g>
  
  <!-- Body - slightly forward lean -->
  <g transform="translate(5, 10)">
    <path d="M140 150 Q130 160 130 200 L130 320 Q130 340 150 340 L210 340 Q230 340 230 320 L230 200 Q230 160 220 150 Q200 140 140 150 Z" fill="url(#hoodieGradient)" stroke="#333" stroke-width="2"/>
    <ellipse cx="180" cy="120" rx="65" ry="70" fill="#1A1A1A"/>
    <ellipse cx="180" cy="115" rx="55" ry="55" fill="#0D0D0D"/>
    <ellipse cx="180" cy="140" rx="40" ry="35" fill="#1A1A1A"/>
    <path d="M140 120 Q180 100 220 120" fill="none" stroke="#000" stroke-width="3" opacity="0.5"/>
  </g>
  
  <!-- Left Arm - back swing -->
  <g id="left-arm" transform="rotate(40, 130, 180)">
    <path d="M130 180 L100 220 L95 280 L105 285 L115 230 L135 190" fill="url(#hoodieGradient)"/>
    <circle cx="100" cy="295" r="15" fill="#E8B89D"/>
  </g>
  
  <!-- Right Arm - forward swing -->
  <g id="right-arm" transform="rotate(-45, 230, 180)">
    <path d="M230 180 L260 220 L265 280 L255 285 L245 230 L225 190" fill="url(#hoodieGradient)"/>
    <circle cx="260" cy="295" r="15" fill="#E8B89D"/>
  </g>
  
  <!-- Face/Mask -->
  <g transform="translate(5, 10)">
    <ellipse cx="180" cy="155" rx="35" ry="30" fill="#E8B89D"/>
    <g filter="url(#glow)">
      <ellipse cx="165" cy="150" rx="10" ry="6" fill="#FFFFFF"/>
      <circle cx="165" cy="150" r="3" fill="#000"/>
      <ellipse cx="195" cy="150" rx="10" ry="6" fill="#FFFFFF"/>
      <circle cx="195" cy="150" r="3" fill="#000"/>
    </g>
    <path d="M155 140 Q165 138 175 142" fill="none" stroke="#333" stroke-width="2"/>
    <path d="M185 142 Q195 138 205 140" fill="none" stroke="#333" stroke-width="2"/>
    <path d="M150 165 Q150 180 165 185 L180 188 L195 185 Q210 180 210 165 L210 160 Q180 170 150 160 Z" fill="#0D0D0D"/>
    <path d="M150 160 Q180 170 210 160" fill="none" stroke="#222" stroke-width="1"/>
  </g>
  
  <!-- Details -->
  <g transform="translate(5, 10)">
    <line x1="165" y1="180" x2="165" y2="240" stroke="#333" stroke-width="3"/>
    <line x1="195" y1="180" x2="195" y2="240" stroke="#333" stroke-width="3"/>
    <circle cx="165" cy="242" r="4" fill="#444"/>
    <circle cx="195" cy="242" r="4" fill="#444"/>
    <g transform="translate(180, 240)">
      <circle cx="0" cy="0" r="15" fill="none" stroke="url(#neonCyan)" stroke-width="2" filter="url(#glow)"/>
      <text x="0" y="5" text-anchor="middle" fill="url(#neonCyan)" font-family="Arial" font-size="12" font-weight="bold" filter="url(#glow)">N</text>
    </g>
    <path d="M155 300 L175 300 L175 320 Q165 325 155 320 Z" fill="#222"/>
    <path d="M145 155 Q180 165 215 155" fill="none" stroke="url(#neonPink)" stroke-width="2" filter="url(#glow)" opacity="0.8"/>
    <rect x="90" y="275" width="20" height="5" fill="#333"/>
    <rect x="250" y="275" width="20" height="5" fill="#333"/>
  </g>
  <ellipse cx="180" cy="510" rx="60" ry="10" fill="#000" opacity="0.3"/>
  
</svg>